<svg version="1" xmlns="http://www.w3.org/2000/svg" width="466.667" height="466.667" viewBox="0 0 350.000000 350.000000"><path d="M198 15.5c-8.9 10.1-23.8 24.3-34.7 33.3-2.9 2.4-15.6 11.3-28.3 19.8-27.9 18.6-37.8 26.2-49.1 37.4-13.6 13.6-23 28.4-26.4 41.6-6.3 24.1-5.7 50.8 1.7 73.4 5 15.5 16.2 34.7 27.2 46.5l5.6 6-4-8.2c-5.1-10.5-11.2-28.4-14.1-40.9-2.9-13-3.2-34.5-.5-44.9 2.5-9.8 9.7-23.9 15.9-31.2 12.6-14.8 27.9-24 53.3-32.1 26.1-8.3 48.3-44.7 60.9-100.2 1.3-5.7 2.3-10.6 2.1-10.7-.1-.2-4.4 4.4-9.6 10.2z"/><path d="M248.4 44.3c-12 20.8-43.1 49.2-74.8 68.2l-9.1 5.5h6.5c8.2 0 17.8 1.6 24.9 4l5.6 1.9 6.5-3.6c20.8-11.4 35.2-30.7 41.6-55.9 2-8.2 4.4-27.5 3.3-27.4-.2 0-2.3 3.3-4.5 7.3zM151.5 128.4c-17.9 3.5-33.3 11.5-45.6 23.6-7.2 7-9.3 10-12.7 17-5.5 11.7-6.7 17.4-6.7 32 .1 14 1.6 22.4 7.2 38.5 3.1 9 14.2 33 14.9 32.3.1-.2-.9-4.1-2.2-8.8-6.9-23.6-7-45.3-.3-54.1l1.8-2.4-.6 5.5c-1 10.4 2.9 28.1 8.2 36.5l2.5 4-.7-4c-4-21.6 6.2-36.1 28.4-40.6 4.8-1 7.8-1 13.7-.1 18.7 2.9 32.8 10.4 70.6 37.4 7.4 5.2 15.3 10.5 17.5 11.7 6.3 3.2 15.2 5.1 24 5.1h8.1l1.3 5c2.5 9.6 7.9 13.6 17.3 12.7 5.8-.5 18.8-5.7 18.8-7.5 0-.6-1.7-1.3-3.7-1.7-4.9-.9-22.4-7.7-28.8-11.3-6.8-3.7-15.4-14.3-21.9-27.1-7.1-13.9-8.8-18.2-14.2-37-2.5-8.7-6.4-19.6-8.9-24.6-9.9-20-26-33.9-47-40.5-9-2.8-30.5-3.6-41-1.6zm71.4 63l12.4 9.9-2.3 1.9c-6.2 5-13.7-.6-21.4-16-2.1-4.1-3.1-7-2.4-6.6.7.4 6.9 5.3 13.7 10.8z"/><path d="M151.8 242c-11.6 2.1-22 9.4-25.9 18.3-3.2 7.4-3.3 18.5 0 24.7 6.2 11.9 18.6 22 46.6 38 14.3 8.2 23.5 14.4 31.8 21.5 3.7 3.2 7 5.6 7.3 5.3.2-.3-3.7-4.5-8.9-9.4-6.2-6-15.9-13.4-29.2-22.4-21.7-14.7-32.7-24.4-36.4-32.3-1.9-3.9-2.2-6-1.9-11.1.5-7.8 3.5-12.3 10.5-15.7 4.2-2.1 6.3-2.4 15.8-2.4 10.3 0 11.4.2 17.8 3.2 3.8 1.8 10.5 5.9 15 9 15 10.7 27.8 16.7 43.8 20.7 18.6 4.7 45.1 3.2 58.9-3.3 2.5-1.2 3.8-1.9 2.8-1.7-6.4 1.8-19.7 2.8-30.2 2.3-24.3-1.1-44.8-9.5-66.7-27.2-14.9-11.9-26.1-17-39.2-17.9-4-.3-9.3-.1-11.9.4z"/></svg>